<svg width="402" height="104" viewBox="0 0 402 104" fill="none" xmlns="http://www.w3.org/2000/svg">
<path d="M40.24 0.479994C50.896 0.479994 60.208 2.63999 68.176 6.96C76.24 11.184 82.432 17.136 86.752 24.816C91.072 32.496 93.232 41.28 93.232 51.168C93.232 60.96 91.024 69.696 86.608 77.376C82.288 85.056 76.096 91.104 68.032 95.52C60.064 99.84 50.8 102 40.24 102H0.0640002V0.479994H40.24ZM38.08 77.088C46.336 77.088 52.816 74.832 57.52 70.32C62.224 65.808 64.576 59.424 64.576 51.168C64.576 42.816 62.224 36.384 57.52 31.872C52.816 27.264 46.336 24.96 38.08 24.96H28.288V77.088H38.08ZM133.603 0.479994V59.376C133.603 64.848 134.851 69.072 137.347 72.048C139.939 75.024 143.827 76.512 149.011 76.512C154.195 76.512 158.083 75.024 160.675 72.048C163.363 68.976 164.707 64.752 164.707 59.376V0.479994H192.931V59.376C192.931 68.688 190.963 76.656 187.027 83.28C183.091 89.808 177.715 94.752 170.899 98.112C164.179 101.376 156.691 103.008 148.435 103.008C140.179 103.008 132.787 101.376 126.259 98.112C119.827 94.752 114.739 89.808 110.995 83.28C107.347 76.752 105.523 68.784 105.523 59.376V0.479994H133.603ZM248.646 0.479994C259.302 0.479994 268.614 2.63999 276.582 6.96C284.646 11.184 290.838 17.136 295.158 24.816C299.478 32.496 301.638 41.28 301.638 51.168C301.638 60.96 299.43 69.696 295.014 77.376C290.694 85.056 284.502 91.104 276.438 95.52C268.47 99.84 259.206 102 248.646 102H208.47V0.479994H248.646ZM246.486 77.088C254.742 77.088 261.222 74.832 265.926 70.32C270.63 65.808 272.982 59.424 272.982 51.168C272.982 42.816 270.63 36.384 265.926 31.872C261.222 27.264 254.742 24.96 246.486 24.96H236.694V77.088H246.486ZM342.009 0.479994V59.376C342.009 64.848 343.257 69.072 345.753 72.048C348.345 75.024 352.233 76.512 357.417 76.512C362.601 76.512 366.489 75.024 369.081 72.048C371.769 68.976 373.113 64.752 373.113 59.376V0.479994H401.337V59.376C401.337 68.688 399.369 76.656 395.433 83.28C391.497 89.808 386.121 94.752 379.305 98.112C372.585 101.376 365.097 103.008 356.841 103.008C348.585 103.008 341.193 101.376 334.665 98.112C328.233 94.752 323.145 89.808 319.401 83.28C315.753 76.752 313.929 68.784 313.929 59.376V0.479994H342.009Z" fill="white"/>
<path d="M68.176 6.96L66.9844 9.15776C66.9949 9.16344 67.0054 9.16904 67.016 9.17458L68.176 6.96ZM86.752 24.816L88.9309 23.5903L86.752 24.816ZM86.608 77.376L84.4407 76.1298C84.4368 76.1366 84.4329 76.1435 84.4291 76.1503L86.608 77.376ZM68.032 95.52L69.2236 97.7178L69.2328 97.7127L68.032 95.52ZM0.0640001 102H-2.436C-2.436 103.381 -1.31671 104.5 0.0640001 104.5V102ZM0.0640001 0.479996V-2.02C-1.31671 -2.02 -2.436 -0.900719 -2.436 0.479996H0.0640001ZM57.52 31.872L55.7706 33.6579C55.7768 33.664 55.7831 33.6701 55.7894 33.6762L57.52 31.872ZM28.288 24.96V22.46C26.9073 22.46 25.788 23.5793 25.788 24.96H28.288ZM28.288 77.088H25.788C25.788 78.4687 26.9073 79.588 28.288 79.588V77.088ZM40.24 -2.02H32.2048V2.98H40.24V-2.02ZM28.1872 -2.02H12.1168V2.98H28.1872V-2.02ZM8.0992 -2.02H0.0640001V2.98H8.0992V-2.02ZM-2.436 0.479996V8.60159H2.564V0.479996H-2.436ZM-2.436 12.6624V28.9056H2.564V12.6624H-2.436ZM-2.436 32.9664V49.2096H2.564V32.9664H-2.436ZM-2.436 53.2704V69.5136H2.564V53.2704H-2.436ZM-2.436 73.5744V89.8176H2.564V73.5744H-2.436ZM-2.436 93.8784V102H2.564V93.8784H-2.436ZM0.0640001 104.5H8.0992V99.5H0.0640001V104.5ZM12.1168 104.5H28.1872V99.5H12.1168V104.5ZM32.2048 104.5H40.24V99.5H32.2048V104.5ZM40.24 104.5C44.3847 104.5 48.3547 104.178 52.1462 103.527L51.3008 98.5992C47.8114 99.1978 44.1257 99.5 40.24 99.5V104.5ZM58.0191 102.217C61.9815 101.117 65.7182 99.6183 69.2236 97.7178L66.8404 93.3222C63.6785 95.0365 60.2941 96.3964 56.6818 97.399L58.0191 102.217ZM69.2328 97.7127C72.5514 95.8954 75.5808 93.8062 78.3144 91.4422L75.0439 87.6602C72.592 89.7805 69.8567 91.6705 66.8312 93.3273L69.2328 97.7127ZM82.296 87.577C84.7855 84.8622 86.9492 81.8688 88.7869 78.6017L84.4291 76.1503C82.7752 79.0905 80.8359 81.7713 78.6109 84.1977L82.296 87.577ZM88.7753 78.6222C90.688 75.2957 92.2066 71.7813 93.3307 68.083L88.5467 66.629C87.5318 69.9685 86.1632 73.1341 84.4407 76.1298L88.7753 78.6222ZM94.6988 62.5139C95.3895 58.8808 95.732 55.0976 95.732 51.168H90.732C90.732 54.8064 90.415 58.2758 89.7868 61.58L94.6988 62.5139ZM95.732 51.168C95.732 47.2243 95.4006 43.4323 94.732 39.7956L89.8144 40.6997C90.4242 44.0165 90.732 47.5048 90.732 51.168H95.732ZM93.4014 34.2038C92.3013 30.4725 90.8113 26.9333 88.9309 23.5903L84.5731 26.0416C86.2658 29.0509 87.6101 32.2416 88.6055 35.6177L93.4014 34.2038ZM88.9309 23.5903C87.0975 20.3308 84.9388 17.358 82.4545 14.6776L78.7874 18.0764C80.9978 20.4613 82.9265 23.1145 84.5731 26.0416L88.9309 23.5903ZM78.4628 10.8593C75.7164 8.52966 72.6718 6.4927 69.336 4.74542L67.016 9.17458C70.0427 10.76 72.7778 12.5936 75.2285 14.6723L78.4628 10.8593ZM69.3676 4.76223C65.8509 2.8556 62.0938 1.35371 58.102 0.253231L56.7732 5.07341C60.4135 6.077 63.8153 7.43956 66.9844 9.15776L69.3676 4.76223ZM52.1997 -1.05317C48.3959 -1.69968 44.4081 -2.02 40.24 -2.02V2.98C44.1522 2.98 47.8583 3.28066 51.3619 3.87614L52.1997 -1.05317ZM38.08 74.588H34.1632V79.588H38.08V74.588ZM32.2048 74.588H28.288V79.588H32.2048V74.588ZM30.788 77.088V70.1376H25.788V77.088H30.788ZM30.788 66.6624V52.7616H25.788V66.6624H30.788ZM30.788 49.2864V35.3856H25.788V49.2864H30.788ZM30.788 31.9104V24.96H25.788V31.9104H30.788ZM28.288 27.46H32.2048V22.46H28.288V27.46ZM34.1632 27.46H38.08V22.46H34.1632V27.46ZM38.08 27.46C40.9512 27.46 43.5492 27.7552 45.887 28.3264L47.0737 23.4692C44.2932 22.79 41.291 22.46 38.08 22.46V27.46ZM49.5255 29.522C51.9106 30.5315 53.9859 31.9097 55.7706 33.6579L59.2695 30.0861C57.0254 27.8879 54.4207 26.1645 51.4744 24.9175L49.5255 29.522ZM55.7894 33.6762C57.5712 35.3852 58.9745 37.4108 60.0004 39.7764L64.5876 37.787C63.306 34.8319 61.5266 32.2509 59.2506 30.0678L55.7894 33.6762ZM61.2079 43.3854C61.7796 45.6978 62.076 48.2872 62.076 51.168H67.076C67.076 47.9482 66.745 44.9492 66.0618 42.1854L61.2079 43.3854ZM62.076 51.168C62.076 54.0225 61.7777 56.5905 61.2025 58.8862L66.0526 60.1014C66.742 57.3498 67.076 54.3672 67.076 51.168H62.076ZM59.9914 62.4631C58.9671 64.7999 57.5675 66.8103 55.7894 68.5158L59.2506 72.1242C61.5151 69.9521 63.2895 67.3936 64.5708 64.4702L59.9914 62.4631ZM55.7894 68.5158C54.0011 70.2311 51.918 71.5846 49.5196 72.5754L51.4287 77.1966C54.383 75.9761 56.9972 74.2856 59.2506 72.1242L55.7894 68.5158ZM45.8779 73.7433C43.5415 74.3002 40.9463 74.588 38.08 74.588V79.588C41.2779 79.588 44.2678 79.2672 47.0373 78.607L45.8779 73.7433ZM133.603 0.479996H136.103C136.103 -0.900719 134.983 -2.02 133.603 -2.02V0.479996ZM137.347 72.048L135.431 73.6545C135.441 73.6664 135.451 73.6782 135.461 73.69L137.347 72.048ZM160.675 72.048L158.793 70.4017L158.789 70.406L160.675 72.048ZM164.707 0.479996V-2.02C163.326 -2.02 162.207 -0.900719 162.207 0.479996H164.707ZM192.931 0.479996H195.431C195.431 -0.900719 194.311 -2.02 192.931 -2.02V0.479996ZM187.027 83.28L189.168 84.5709C189.17 84.5663 189.173 84.5617 189.176 84.5571L187.027 83.28ZM170.899 98.112L171.991 100.361C171.995 100.359 172 100.357 172.004 100.354L170.899 98.112ZM126.259 98.112L125.101 100.328C125.114 100.335 125.127 100.341 125.141 100.348L126.259 98.112ZM110.995 83.28L108.812 84.4996C108.817 84.5077 108.821 84.5157 108.826 84.5238L110.995 83.28ZM105.523 0.479996V-2.02C104.142 -2.02 103.023 -0.900719 103.023 0.479996H105.523ZM133.603 -2.02H122.371V2.98H133.603V-2.02ZM116.755 -2.02H105.523V2.98H116.755V-2.02ZM103.023 0.479996V8.33279H108.023V0.479996H103.023ZM103.023 12.2592V27.9648H108.023V12.2592H103.023ZM103.023 31.8912V47.5968H108.023V31.8912H103.023ZM103.023 51.5232V59.376H108.023V51.5232H103.023ZM103.023 59.376C103.023 62.9861 103.282 66.4135 103.808 69.6541L108.744 68.8531C108.265 65.9051 108.023 62.7475 108.023 59.376H103.023ZM104.897 74.7494C105.84 78.2576 107.142 81.511 108.812 84.4996L113.177 82.0604C111.722 79.4576 110.569 76.5914 109.726 73.4518L104.897 74.7494ZM108.826 84.5238C110.387 87.2451 112.176 89.72 114.198 91.9417L117.896 88.577C116.132 86.6378 114.553 84.4598 113.163 82.0362L108.826 84.5238ZM117.495 95.1627C119.802 97.1635 122.339 98.8851 125.101 100.328L127.416 95.8961C124.99 94.6288 122.777 93.125 120.77 91.3852L117.495 95.1627ZM125.141 100.348C128.005 101.78 131.022 102.913 134.187 103.748L135.462 98.9131C132.62 98.1635 129.926 97.1506 127.377 95.8759L125.141 100.348ZM138.899 104.753C141.958 105.258 145.138 105.508 148.435 105.508V100.508C145.391 100.508 142.485 100.277 139.713 99.8194L138.899 104.753ZM148.435 105.508C151.757 105.508 154.972 105.254 158.079 104.742L157.266 99.8084C154.444 100.273 151.501 100.508 148.435 100.508V105.508ZM162.84 103.732C166.023 102.901 169.074 101.777 171.991 100.361L169.806 95.8632C167.19 97.1342 164.447 98.1449 161.576 98.8947L162.84 103.732ZM172.004 100.354C174.887 98.9333 177.538 97.2391 179.951 95.2699L176.79 91.396C174.68 93.1173 172.35 94.6091 169.793 95.8696L172.004 100.354ZM183.438 92.0619C185.598 89.824 187.507 87.3248 189.168 84.5709L184.886 81.9891C183.411 84.4348 181.729 86.6328 179.84 88.5896L183.438 92.0619ZM189.176 84.5571C190.954 81.5654 192.348 78.3278 193.365 74.8526L188.566 73.4486C187.661 76.5409 186.43 79.3895 184.877 82.0029L189.176 84.5571ZM194.559 69.7362C195.143 66.4597 195.431 63.0048 195.431 59.376H190.431C190.431 62.741 190.164 65.9008 189.637 68.8599L194.559 69.7362ZM195.431 59.376V51.5232H190.431V59.376H195.431ZM195.431 47.5968V31.8912H190.431V47.5968H195.431ZM195.431 27.9648V12.2592H190.431V27.9648H195.431ZM195.431 8.33279V0.479996H190.431V8.33279H195.431ZM192.931 -2.02H181.641V2.98H192.931V-2.02ZM175.996 -2.02H164.707V2.98H175.996V-2.02ZM162.207 0.479996V8.33279H167.207V0.479996H162.207ZM162.207 12.2592V27.9648H167.207V12.2592H162.207ZM162.207 31.8912V47.5968H167.207V31.8912H162.207ZM162.207 51.5232V59.376H167.207V51.5232H162.207ZM162.207 59.376C162.207 61.1792 162.043 62.8013 161.73 64.2528L166.619 65.3043C167.016 63.4581 167.207 61.4786 167.207 59.376H162.207ZM161.076 66.514C160.514 68.0205 159.75 69.3081 158.793 70.4017L162.556 73.6943C163.937 72.1165 165.002 70.2971 165.761 68.2611L161.076 66.514ZM158.789 70.406C157.906 71.4201 156.829 72.2202 155.527 72.8088L157.587 77.3648C159.52 76.4906 161.188 75.2648 162.56 73.69L158.789 70.406ZM153.509 73.5055C152.208 73.8351 150.714 74.012 149.011 74.012V79.012C151.054 79.012 152.969 78.8002 154.737 78.3525L153.509 73.5055ZM149.011 74.012C147.308 74.012 145.814 73.8351 144.512 73.5055L143.285 78.3525C145.053 78.8002 146.967 79.012 149.011 79.012V74.012ZM142.494 72.8088C141.193 72.2202 140.115 71.4201 139.232 70.406L135.461 73.69C136.833 75.2648 138.501 76.4906 140.435 77.3648L142.494 72.8088ZM139.262 70.4415C138.374 69.3827 137.656 68.0957 137.128 66.5442L132.394 68.1537C133.099 70.2264 134.104 72.0721 135.431 73.6545L139.262 70.4415ZM136.531 64.2669C136.25 62.8167 136.103 61.1896 136.103 59.376H131.103C131.103 61.4559 131.271 63.4063 131.622 65.2178L136.531 64.2669ZM136.103 59.376V51.5232H131.103V59.376H136.103ZM136.103 47.5968V31.8912H131.103V47.5968H136.103ZM136.103 27.9648V12.2592H131.103V27.9648H136.103ZM136.103 8.33279V0.479996H131.103V8.33279H136.103ZM276.582 6.96L275.391 9.15776C275.401 9.16344 275.412 9.16904 275.422 9.17458L276.582 6.96ZM295.158 24.816L297.337 23.5903L295.158 24.816ZM295.014 77.376L292.847 76.1298C292.843 76.1366 292.839 76.1435 292.835 76.1503L295.014 77.376ZM276.438 95.52L277.63 97.7178L277.639 97.7127L276.438 95.52ZM208.47 102H205.97C205.97 103.381 207.09 104.5 208.47 104.5V102ZM208.47 0.479996V-2.02C207.09 -2.02 205.97 -0.900719 205.97 0.479996H208.47ZM265.926 31.872L264.177 33.6579C264.183 33.664 264.189 33.6701 264.196 33.6762L265.926 31.872ZM236.694 24.96V22.46C235.314 22.46 234.194 23.5793 234.194 24.96H236.694ZM236.694 77.088H234.194C234.194 78.4687 235.314 79.588 236.694 79.588V77.088ZM248.646 -2.02H240.611V2.98H248.646V-2.02ZM236.593 -2.02H220.523V2.98H236.593V-2.02ZM216.505 -2.02H208.47V2.98H216.505V-2.02ZM205.97 0.479996V8.60159H210.97V0.479996H205.97ZM205.97 12.6624V28.9056H210.97V12.6624H205.97ZM205.97 32.9664V49.2096H210.97V32.9664H205.97ZM205.97 53.2704V69.5136H210.97V53.2704H205.97ZM205.97 73.5744V89.8176H210.97V73.5744H205.97ZM205.97 93.8784V102H210.97V93.8784H205.97ZM208.47 104.5H216.505V99.5H208.47V104.5ZM220.523 104.5H236.593V99.5H220.523V104.5ZM240.611 104.5H248.646V99.5H240.611V104.5ZM248.646 104.5C252.791 104.5 256.761 104.178 260.552 103.527L259.707 98.5992C256.218 99.1978 252.532 99.5 248.646 99.5V104.5ZM266.425 102.217C270.388 101.117 274.124 99.6183 277.63 97.7178L275.247 93.3222C272.085 95.0365 268.7 96.3964 265.088 97.399L266.425 102.217ZM277.639 97.7127C280.958 95.8954 283.987 93.8062 286.721 91.4422L283.45 87.6602C280.998 89.7805 278.263 91.6705 275.237 93.3273L277.639 97.7127ZM290.702 87.577C293.192 84.8622 295.355 81.8688 297.193 78.6017L292.835 76.1503C291.181 79.0905 289.242 81.7713 287.017 84.1977L290.702 87.577ZM297.182 78.6222C299.094 75.2957 300.613 71.7813 301.737 68.083L296.953 66.629C295.938 69.9685 294.569 73.1341 292.847 76.1298L297.182 78.6222ZM303.105 62.5139C303.796 58.8808 304.138 55.0976 304.138 51.168H299.138C299.138 54.8064 298.821 58.2758 298.193 61.58L303.105 62.5139ZM304.138 51.168C304.138 47.2243 303.807 43.4323 303.138 39.7956L298.221 40.6997C298.83 44.0165 299.138 47.5048 299.138 51.168H304.138ZM301.808 34.2038C300.708 30.4725 299.218 26.9333 297.337 23.5903L292.979 26.0416C294.672 29.0509 296.016 32.2416 297.012 35.6177L301.808 34.2038ZM297.337 23.5903C295.504 20.3308 293.345 17.358 290.861 14.6776L287.194 18.0764C289.404 20.4613 291.333 23.1145 292.979 26.0416L297.337 23.5903ZM286.869 10.8593C284.123 8.52966 281.078 6.4927 277.742 4.74542L275.422 9.17458C278.449 10.76 281.184 12.5936 283.635 14.6723L286.869 10.8593ZM277.774 4.76223C274.257 2.8556 270.5 1.35371 266.508 0.253231L265.179 5.07341C268.82 6.077 272.222 7.43956 275.391 9.15776L277.774 4.76223ZM260.606 -1.05317C256.802 -1.69968 252.814 -2.02 248.646 -2.02V2.98C252.558 2.98 256.265 3.28066 259.768 3.87614L260.606 -1.05317ZM246.486 74.588H242.569V79.588H246.486V74.588ZM240.611 74.588H236.694V79.588H240.611V74.588ZM239.194 77.088V70.1376H234.194V77.088H239.194ZM239.194 66.6624V52.7616H234.194V66.6624H239.194ZM239.194 49.2864V35.3856H234.194V49.2864H239.194ZM239.194 31.9104V24.96H234.194V31.9104H239.194ZM236.694 27.46H240.611V22.46H236.694V27.46ZM242.569 27.46H246.486V22.46H242.569V27.46ZM246.486 27.46C249.357 27.46 251.955 27.7552 254.293 28.3264L255.48 23.4692C252.699 22.79 249.697 22.46 246.486 22.46V27.46ZM257.932 29.522C260.317 30.5315 262.392 31.9097 264.177 33.6579L267.676 30.0861C265.432 27.8879 262.827 26.1645 259.881 24.9175L257.932 29.522ZM264.196 33.6762C265.977 35.3852 267.381 37.4108 268.407 39.7764L272.994 37.787C271.712 34.8319 269.933 32.2509 267.657 30.0678L264.196 33.6762ZM269.614 43.3854C270.186 45.6978 270.482 48.2872 270.482 51.168H275.482C275.482 47.9482 275.151 44.9492 274.468 42.1854L269.614 43.3854ZM270.482 51.168C270.482 54.0225 270.184 56.5905 269.609 58.8862L274.459 60.1014C275.148 57.3498 275.482 54.3672 275.482 51.168H270.482ZM268.398 62.4631C267.373 64.7999 265.974 66.8103 264.196 68.5158L267.657 72.1242C269.921 69.9521 271.696 67.3936 272.977 64.4702L268.398 62.4631ZM264.196 68.5158C262.407 70.2311 260.324 71.5846 257.926 72.5754L259.835 77.1966C262.789 75.9761 265.403 74.2856 267.657 72.1242L264.196 68.5158ZM254.284 73.7433C251.948 74.3002 249.353 74.588 246.486 74.588V79.588C249.684 79.588 252.674 79.2672 255.444 78.607L254.284 73.7433ZM342.009 0.479996H344.509C344.509 -0.900719 343.39 -2.02 342.009 -2.02V0.479996ZM345.753 72.048L343.837 73.6545C343.847 73.6664 343.857 73.6782 343.868 73.69L345.753 72.048ZM369.081 72.048L367.199 70.4017L367.196 70.406L369.081 72.048ZM373.113 0.479996V-2.02C371.732 -2.02 370.613 -0.900719 370.613 0.479996H373.113ZM401.337 0.479996H403.837C403.837 -0.900719 402.718 -2.02 401.337 -2.02V0.479996ZM395.433 83.28L397.574 84.5709C397.577 84.5663 397.579 84.5617 397.582 84.5571L395.433 83.28ZM379.305 98.112L380.397 100.361C380.402 100.359 380.406 100.357 380.41 100.354L379.305 98.112ZM334.665 98.112L333.507 100.328C333.52 100.335 333.534 100.341 333.547 100.348L334.665 98.112ZM319.401 83.28L317.219 84.4996C317.223 84.5077 317.228 84.5157 317.232 84.5238L319.401 83.28ZM313.929 0.479996V-2.02C312.548 -2.02 311.429 -0.900719 311.429 0.479996H313.929ZM342.009 -2.02H330.777V2.98H342.009V-2.02ZM325.161 -2.02H313.929V2.98H325.161V-2.02ZM311.429 0.479996V8.33279H316.429V0.479996H311.429ZM311.429 12.2592V27.9648H316.429V12.2592H311.429ZM311.429 31.8912V47.5968H316.429V31.8912H311.429ZM311.429 51.5232V59.376H316.429V51.5232H311.429ZM311.429 59.376C311.429 62.9861 311.689 66.4135 312.215 69.6541L317.15 68.8531C316.671 65.9051 316.429 62.7475 316.429 59.376H311.429ZM313.303 74.7494C314.246 78.2576 315.548 81.511 317.219 84.4996L321.583 82.0604C320.129 79.4576 318.976 76.5914 318.132 73.4518L313.303 74.7494ZM317.232 84.5238C318.793 87.2451 320.583 89.72 322.604 91.9417L326.302 88.577C324.538 86.6378 322.96 84.4598 321.57 82.0362L317.232 84.5238ZM325.901 95.1627C328.208 97.1635 330.745 98.8851 333.507 100.328L335.822 95.8961C333.396 94.6288 331.183 93.125 329.177 91.3852L325.901 95.1627ZM333.547 100.348C336.411 101.78 339.428 102.913 342.593 103.748L343.868 98.9131C341.026 98.1635 338.332 97.1506 335.783 95.8759L333.547 100.348ZM347.305 104.753C350.364 105.258 353.544 105.508 356.841 105.508V100.508C353.797 100.508 350.891 100.277 348.119 99.8194L347.305 104.753ZM356.841 105.508C360.163 105.508 363.378 105.254 366.485 104.742L365.672 99.8084C362.85 100.273 359.907 100.508 356.841 100.508V105.508ZM371.246 103.732C374.429 102.901 377.48 101.777 380.397 100.361L378.213 95.8632C375.596 97.1342 372.854 98.1449 369.983 98.8947L371.246 103.732ZM380.41 100.354C383.293 98.9333 385.944 97.2391 388.357 95.2699L385.196 91.396C383.087 93.1173 380.757 94.6091 378.199 95.8696L380.41 100.354ZM391.844 92.0619C394.004 89.824 395.913 87.3248 397.574 84.5709L393.292 81.9891C391.817 84.4348 390.135 86.6328 388.246 88.5896L391.844 92.0619ZM397.582 84.5571C399.36 81.5654 400.755 78.3278 401.771 74.8526L396.972 73.4486C396.068 76.5409 394.837 79.3895 393.284 82.0029L397.582 84.5571ZM402.966 69.7362C403.549 66.4597 403.837 63.0048 403.837 59.376H398.837C398.837 62.741 398.57 65.9008 398.043 68.8599L402.966 69.7362ZM403.837 59.376V51.5232H398.837V59.376H403.837ZM403.837 47.5968V31.8912H398.837V47.5968H403.837ZM403.837 27.9648V12.2592H398.837V27.9648H403.837ZM403.837 8.33279V0.479996H398.837V8.33279H403.837ZM401.337 -2.02H390.047V2.98H401.337V-2.02ZM384.402 -2.02H373.113V2.98H384.402V-2.02ZM370.613 0.479996V8.33279H375.613V0.479996H370.613ZM370.613 12.2592V27.9648H375.613V12.2592H370.613ZM370.613 31.8912V47.5968H375.613V31.8912H370.613ZM370.613 51.5232V59.376H375.613V51.5232H370.613ZM370.613 59.376C370.613 61.1792 370.449 62.8013 370.137 64.2528L375.025 65.3043C375.422 63.4581 375.613 61.4786 375.613 59.376H370.613ZM369.482 66.514C368.921 68.0205 368.156 69.3081 367.199 70.4017L370.962 73.6943C372.343 72.1165 373.408 70.2971 374.167 68.2611L369.482 66.514ZM367.196 70.406C366.312 71.4201 365.235 72.2202 363.933 72.8088L365.993 77.3648C367.927 76.4906 369.594 75.2648 370.966 73.69L367.196 70.406ZM361.916 73.5055C360.614 73.8351 359.12 74.012 357.417 74.012V79.012C359.461 79.012 361.375 78.8002 363.143 78.3525L361.916 73.5055ZM357.417 74.012C355.714 74.012 354.22 73.8351 352.918 73.5055L351.691 78.3525C353.459 78.8002 355.373 79.012 357.417 79.012V74.012ZM350.901 72.8088C349.599 72.2202 348.521 71.4201 347.638 70.406L343.868 73.69C345.239 75.2648 346.907 76.4906 348.841 77.3648L350.901 72.8088ZM347.668 70.4415C346.78 69.3827 346.062 68.0957 345.534 66.5442L340.8 68.1537C341.505 70.2264 342.51 72.0721 343.837 73.6545L347.668 70.4415ZM344.937 64.2669C344.656 62.8167 344.509 61.1896 344.509 59.376H339.509C339.509 61.4559 339.677 63.4063 340.028 65.2178L344.937 64.2669ZM344.509 59.376V51.5232H339.509V59.376H344.509ZM344.509 47.5968V31.8912H339.509V47.5968H344.509ZM344.509 27.9648V12.2592H339.509V27.9648H344.509ZM344.509 8.33279V0.479996H339.509V8.33279H344.509Z" fill="#E8E8E8"/>
</svg>
