<svg width="42" height="34" viewBox="0 0 42 34" fill="none" xmlns="http://www.w3.org/2000/svg">
<path d="M3.53602 4.775C6.45893 1.60625 10.8818 0 16.6798 0H18.7631V5.87292L17.0881 6.20833C14.2339 6.77917 12.2485 7.90208 11.186 9.55C10.6316 10.4378 10.3172 11.4543 10.2735 12.5H16.6798C17.2323 12.5 17.7622 12.7195 18.1529 13.1102C18.5436 13.5009 18.7631 14.0308 18.7631 14.5833V29.1667C18.7631 31.4646 16.8944 33.3333 14.5964 33.3333H2.09643C1.5439 33.3333 1.01399 33.1138 0.623294 32.7231C0.232593 32.3324 0.0130996 31.8025 0.0130996 31.25V20.8333L0.0193497 14.7521C0.000599692 14.5208 -0.395234 9.04167 3.53602 4.775ZM37.5131 33.3333H25.0131C24.4606 33.3333 23.9307 33.1138 23.54 32.7231C23.1493 32.3324 22.9298 31.8025 22.9298 31.25V20.8333L22.936 14.7521C22.9173 14.5208 22.5214 9.04167 26.4527 4.775C29.3756 1.60625 33.7985 0 39.5964 0H41.6798V5.87292L40.0048 6.20833C37.1506 6.77917 35.1652 7.90208 34.1027 9.55C33.5483 10.4378 33.2339 11.4543 33.1902 12.5H39.5964C40.149 12.5 40.6789 12.7195 41.0696 13.1102C41.4603 13.5009 41.6798 14.0308 41.6798 14.5833V29.1667C41.6798 31.4646 39.811 33.3333 37.5131 33.3333Z" fill="#2F3D66"/>
</svg>
