<svg width="1440" height="604" viewBox="0 0 1440 604" fill="none" xmlns="http://www.w3.org/2000/svg">
<path fill-rule="evenodd" clip-rule="evenodd" d="M0 0L60 14.381C120 28.7619 240 57.5238 360 57.5238C480 57.5238 600 28.7619 720 43.1429C840 57.5238 960 115.048 1080 129.429C1200 143.81 1320 115.048 1380 100.667L1440 86.2857V302H1380C1320 302 1200 302 1080 302C960 302 840 302 720 302C600 302 480 302 360 302C240 302 120 302 60 302H0V0Z" fill="#458795" fill-opacity="0.1"/>
<path fill-rule="evenodd" clip-rule="evenodd" d="M1441 604L1381 589.619C1321 575.238 1201 546.476 1081 546.476C961 546.476 841 575.238 721 560.857C601 546.476 481 488.952 361 474.571C241 460.19 121 488.952 61 503.333L1 517.714V302H61C121 302 241 302 361 302C481 302 601 302 721 302C841 302 961 302 1081 302C1201 302 1321 302 1381 302H1441V604Z" fill="#458795" fill-opacity="0.1"/>
</svg>
