<svg width="1440" height="302" viewBox="0 0 1440 302" fill="none" xmlns="http://www.w3.org/2000/svg">
<path fill-rule="evenodd" clip-rule="evenodd" d="M1440 302L1380 287.619C1320 273.238 1200 244.476 1080 244.476C960 244.476 840 273.238 720 258.857C600 244.476 480 186.952 360 172.571C240 158.19 120 186.952 59.9999 201.333L-5.72205e-05 215.714V1.04904e-05H59.9999C120 1.04904e-05 240 1.04904e-05 360 1.04904e-05C480 1.04904e-05 600 1.04904e-05 720 1.04904e-05C840 1.04904e-05 960 1.04904e-05 1080 1.04904e-05C1200 1.04904e-05 1320 1.04904e-05 1380 1.04904e-05H1440V302Z" fill="#458795" fill-opacity="0.1"/>
</svg>
